<?xml version="1.0" encoding="UTF-8" standalone="no"?>
<svg
   xmlns:dc="http://purl.org/dc/elements/1.1/"
   xmlns:cc="http://creativecommons.org/ns#"
   xmlns:rdf="http://www.w3.org/1999/02/22-rdf-syntax-ns#"
   xmlns:svg="http://www.w3.org/2000/svg"
   xmlns="http://www.w3.org/2000/svg"
   xmlns:sodipodi="http://sodipodi.sourceforge.net/DTD/sodipodi-0.dtd"
   xmlns:inkscape="http://www.inkscape.org/namespaces/inkscape"
   version="1.1"
   id="Layer_1"
   x="0px"
   y="0px"
   width="100px"
   height="100px"
   viewBox="5.0 -10.0 100.0 135.0"
   enable-background="new 0 0 100 100"
   xml:space="preserve"
   inkscape:version="0.91 r"
   sodipodi:docname="speach.svg"><metadata
     id="metadata15"><rdf:RDF><cc:Work
         rdf:about=""><dc:format>image/svg+xml</dc:format><dc:type
           rdf:resource="http://purl.org/dc/dcmitype/StillImage" /><dc:title></dc:title></cc:Work></rdf:RDF></metadata><defs
     id="defs13" /><sodipodi:namedview
     pagecolor="#ffffff"
     bordercolor="#666666"
     borderopacity="1"
     objecttolerance="10"
     gridtolerance="10"
     guidetolerance="10"
     inkscape:pageopacity="0"
     inkscape:pageshadow="2"
     inkscape:window-width="1280"
     inkscape:window-height="776"
     id="namedview11"
     showgrid="false"
     inkscape:zoom="3.337544"
     inkscape:cx="79.618614"
     inkscape:cy="38.043847"
     inkscape:window-x="0"
     inkscape:window-y="24"
     inkscape:window-maximized="1"
     inkscape:current-layer="Layer_1" /><rect
     fill="none"
     width="100"
     height="100"
     id="rect3" /><path
     d="m 90.313006,31.953501 c 0,1.1955 -0.9675,2.166 -2.166,2.166 l -66.294007,0 c -1.198501,0 -2.166001,-0.9705 -2.166001,-2.166 0,-1.194 0.9675,-2.166 2.166001,-2.166 l 66.292507,0 c 1.2,0 2.1675,0.9705 2.1675,2.166 z m -2.166,16.273501 -66.294007,0 c -1.198501,0 -2.166001,0.9675 -2.166001,2.166 0,1.1985 0.9675,2.166 2.166001,2.166 l 66.292507,0 c 1.2,0 2.166,-0.9675 2.166,-2.166 0.002,-1.1985 -0.966,-2.166 -2.1645,-2.166 z m -19.479005,18.441001 -46.815002,0 c -1.198501,0 -2.166001,0.9675 -2.166001,2.166 0,1.1985 0.9675,2.157 2.166001,2.157 l 46.815002,0 c 1.1985,0 2.1645,-0.96 2.1645,-2.157 0.0015,-1.1985 -0.966,-2.166 -2.1645,-2.166 z M 122.50001,51.920002 c 0,31.573501 -30.277504,57.271508 -67.50001,57.271508 -5.3475,0 -10.798501,-0.58501 -16.249501,-1.73551 L 0.73599795,120.13251 c -0.447,0.1455 -0.9105,0.2175 -1.3665,0.2175 -1.17450105,0 -2.33400105,-0.48 -3.16500105,-1.3755 -1.1505,-1.23 -1.479,-3.03 -0.84,-4.5945 L 5.1474979,90.552504 C -6.2570031,79.985003 -12.500003,66.381503 -12.500003,51.920002 -12.500003,20.343501 17.777498,-5.3500008 55,-5.3500008 c 37.222506,0 67.50001,25.6935018 67.50001,57.2700028 z m -8.6565,0 C 113.84351,25.115001 87.442006,3.3110002 55,3.3110002 c -32.442001,0 -58.8435031,21.8040008 -58.8435031,48.6090018 0,12.838501 6.018001,24.946501 16.9530011,34.108501 1.446,1.215001 1.9425,3.220501 1.2225,4.963501 L 6.9624979,108.9275 37.143999,98.865504 c 0.7515,-0.2475 1.5585,-0.288 2.3175,-0.1125 C 44.689,99.936504 49.9075,100.529 55,100.529 c 32.443506,-0.001 58.84351,-21.808497 58.84351,-48.608998 z"
     id="path5"
     inkscape:connector-curvature="0" /></svg>