<svg xmlns="http://www.w3.org/2000/svg" xmlns:xlink="http://www.w3.org/1999/xlink" version="1.1" id="Layer_1" x="0px" y="0px" width="100px" height="100px" viewBox="5.0 -10.0 100.0 135.0" enable-background="new 0 0 100 100" xml:space="preserve">
<rect fill="none" width="100" height="100"/>
<path d="M73.542,32.969c0,0.797-0.645,1.444-1.444,1.444H27.902c-0.799,0-1.444-0.647-1.444-1.444c0-0.796,0.645-1.444,1.444-1.444  h44.195C72.897,31.525,73.542,32.172,73.542,32.969z M72.098,43.818H27.902c-0.799,0-1.444,0.645-1.444,1.444  c0,0.799,0.645,1.444,1.444,1.444h44.195c0.8,0,1.444-0.645,1.444-1.444C73.542,44.463,72.897,43.818,72.098,43.818z M59.112,56.112  h-31.21c-0.799,0-1.444,0.645-1.444,1.444c0,0.799,0.645,1.438,1.444,1.438h31.21c0.799,0,1.443-0.64,1.443-1.438  C60.556,56.757,59.911,56.112,59.112,56.112z M95,46.28c0,21.049-20.185,38.181-45,38.181c-3.565,0-7.199-0.39-10.833-1.157  l-25.343,8.451c-0.298,0.097-0.607,0.145-0.911,0.145c-0.783,0-1.556-0.32-2.11-0.917c-0.767-0.82-0.986-2.02-0.56-3.063  l6.522-15.885C9.162,64.99,5,55.921,5,46.28C5,25.229,25.185,8.1,50,8.1S95,25.229,95,46.28z M89.229,46.28  c0-17.87-17.601-32.406-39.229-32.406S10.771,28.41,10.771,46.28c0,8.559,4.012,16.631,11.302,22.739  c0.964,0.81,1.295,2.147,0.815,3.309l-4.913,11.957l20.121-6.708c0.501-0.165,1.039-0.192,1.545-0.075  c3.485,0.789,6.964,1.184,10.359,1.184C71.629,78.685,89.229,64.147,89.229,46.28z"/>
<text x="0.0" y="117.5" font-size="5.0" font-weight="bold" font-family="Helvetica Neue, Helvetica, Arial-Unicode, Arial, Sans-serif" fill="#000000">Created by hunotika</text><text x="0.0" y="122.5" font-size="5.0" font-weight="bold" font-family="Helvetica Neue, Helvetica, Arial-Unicode, Arial, Sans-serif" fill="#000000">from the Noun Project</text></svg>